<svg xmlns="http://www.w3.org/2000/svg" viewBox="0 0 1500 1500"><defs><style>.cls-1,.cls-2{fill:#880606;}.cls-2{font-size:128.03px;font-family:ForgottenUncial, ForgottenUncial;letter-spacing:0.12em;}.cls-3{letter-spacing:0.11em;}.cls-4{letter-spacing:0.12em;}.cls-5{letter-spacing:0.11em;}.cls-6{letter-spacing:0.12em;}.cls-7{letter-spacing:0.11em;}.cls-8{letter-spacing:0.11em;}.cls-9{letter-spacing:0.12em;}.cls-10{letter-spacing:0.11em;}</style></defs><title>Tegnebræt 3</title><g id="Lag_3" data-name="Lag 3"><path class="cls-1" d="M1497.14,978.59c-8.57-100.09-36.49-194.92-80.34-285.17-11.29-23.22-25.32-45.13-35.75-68.62-19.44-43.77-37.15-88.36-52.14-133.91-6.59-20-12.31-40.33-13-61.66-.18-5.87,1.21-11.17,6.07-14.69,7-5.1,14.45-9.58,23.21-11.37,21.55-4.42,43-3.57,64.33,1.2,11.23,2.51,22.38,4,33.53.28a37.11,37.11,0,0,0,24.22-24.22c3.42-10.84-3-20.27-11.12-27.88s-17.61-12.34-28-15.65c-26.12-8.31-52.77-9.89-79.74-5.79-15.63,2.37-31.12,5.61-44.91,14.07-38.18,23.44-51.61,57.86-45.38,101.31,3.84,26.76,12.05,52.3,20.52,77.8,17,51.06,39.56,99.85,60,149.53,16.85,41,32.25,82.71,37.16,127,7,62.78,3.19,125.35-9.63,187.22-18.52,89.46-66.45,156.69-149,198.58-103.6,52.56-213.42,75.21-329.08,71.8-18.53-.54-37-1.45-57.25-4.19,66.36-12.84,69.86-15.29,127.88-41.83,83.8-38.33,152.49-93.82,204.22-170.37,35.19-52.08,63.25-107.39,73.67-169.75,12.55-75,7.74-149.79-10.37-223.6-23.63-96.28-71.89-179.41-136.56-253.6-34.35-39.41-72.93-74.28-114.93-105.74,12.25,2,24.3,4.54,36.34,7.14,19.85,4.29,39.72,8.35,60.09,9.23,2.7.12,5,.72,6.14-3s-1.35-4.58-3.61-5.74c-5.13-2.67-10.22-5.45-15.5-7.8-33.71-15-68.92-25.9-103.79-37.7-103.3-35-209-61.67-314.13-90.32-6.53-1.78-8.52-4.35-8.27-11.12.94-25.3,1-50.62.07-75.92-.45-11.62-3.39-14.44-14.56-14.45h-15c-12.78,0-15.7,2.58-15.9,15.49q-.46,31.64-.19,63.28c.06,5.72-.22,7.66-7.05,5.76-78.38-21.73-156.89-43-235.32-64.57C234.25,49.5,124.38,20,12.06.83,9.26.35,6.48-1,3.9,1.36V4.53c20.78,7.23,37.85,19.89,53.68,35C120.11,99,179.36,161.57,232.23,229.93c55.53,71.82,103,148.46,136.34,233.19,63.49,161.29,63.18,322.19-3.72,482.59-29.64,71.06-76.71,126.32-144.33,164.08-37.8,21.1-76.69,39.42-117.65,53.4-2,.69-6.33-.14-5.58,3.82a7.45,7.45,0,0,0,6.33,6.3c1.82.25,3.67.32,5.51.49,8.4.77,16.8,1.5,25.2,2.33,77.37,7.63,154.53,17.64,232.3,20.72,46.93,1.85,93.16-2.54,138.27-16.36,50.77-15.56,97.69-39.39,141.49-68.8,58.45-39.25,123.05-51.92,191.79-48.29,35.84,1.9,68.73,13.2,96.07,37.42,21.08,18.67,25,38.23,13.87,64.08-10.18,23.7-28.94,38.24-51.59,48.71-27.45,12.68-56.32,22.05-83.37,35.67-2.86,1.45-5.91,2.55-5.69,6.58.25,4.59,4.11,3.29,6.57,3.79,65,13.35,130.54,17.2,196.65,12.63,71.24-4.92,140-20.55,206.06-47.81,92.41-38.13,155.21-103.64,185.61-199.49,16.94-53.42,24.25-108.35,26.55-164.12.07-1.49-.59-3.4,1.54-5,1.27,5,2.34,9.32,3.42,13.61,25.93,103.73,30.35,207.72,3.69,312.07-28.52,111.62-92.34,194.77-197.34,244.72-65.74,31.27-135.8,46.14-207.52,54.83-40.6,4.93-81.39,7.16-122.21,9.11-2.61.13-6.15-1.07-6.16,3.77,0,4.52,21.83,5.81,22.17,6h109.19c2.64,0,127.11-13.88,181-31.65,121.87-40.16,206.6-119.11,250.2-240.49C1495.94,1147.15,1504.41,1063.66,1497.14,978.59ZM871,1039.7c-81.54-12.08-158.52-.33-228.24,46.47-37,24.82-75,47.81-116.08,65.4-57.92,24.8-118.66,31.59-181,29.43-68.28-2.36-136.26-8.89-204.33-14.29-5.36-.43-10.73-.75-16.34-2.47,4.29-1.46,8.57-3,12.87-4.4a658.44,658.44,0,0,0,99.75-43.36c67.8-36,117.09-89.45,151-157.83C432,871,456,778.76,453.11,680.5c-2.36-80.16-21.17-156.92-51.26-231-48.39-119.19-121.31-222-210.66-313.65C153.62,97.28,113.93,61.15,68,32.48c-.16-.1-.14-.48-.2-.73,1.54-.9,3.07-.49,4.57.06C172.57,68.54,275.42,96.6,378,125.65q220.71,62.54,441.51,124.81c30.66,8.61,61.72,15.81,92.63,23.51A47.81,47.81,0,0,1,927,280.78c35.65,23.41,64.21,54.53,93.06,85.3,62.09,66.21,112.44,140,144.48,225.47,31.13,83,43,168.87,35.3,257.08-4.6,52.8-23.59,101.38-49.19,147.36-28.94,52-64.2,99.06-109.55,138-18.56,15.93-39,29.4-61.28,43.19,17.16-40.27,8.26-76.84-24.17-103.25C931,1053.85,901.72,1044.26,871,1039.7Z"/><text class="cls-2" transform="matrix(1, -0.09, 0.09, 1, 10.68, 1427.14)">F<tspan class="cls-3" x="80.54" y="8.12">R</tspan><tspan class="cls-4" x="185.65" y="14.77">I</tspan><tspan class="cls-5" x="232.56" y="22.48">G</tspan><tspan class="cls-5" x="361.72" y="33.79">G</tspan><tspan class="cls-6" x="491.06" y="43.07">L</tspan><tspan class="cls-7" x="574.15" y="51.26">A</tspan><tspan class="cls-8" x="678.11" y="60.89">U</tspan><tspan class="cls-5" x="794.26" y="71.63">G</tspan><tspan class="cls-9" x="923.6" y="81.01">E</tspan><tspan class="cls-10" x="1008.71" y="89.5">T</tspan></text></g></svg>