<?xml version="1.0" encoding="utf-8"?>
<!-- Generator: Adobe Illustrator 22.1.0, SVG Export Plug-In . SVG Version: 6.00 Build 0)  -->
<svg version="1.1" id="Lag_1" xmlns="http://www.w3.org/2000/svg" xmlns:xlink="http://www.w3.org/1999/xlink" x="0px" y="0px"
	 viewBox="0 0 1500 1500" style="enable-background:new 0 0 1500 1500;" xml:space="preserve">
<style type="text/css">
	.st0{fill:#FFFFFF;}
	.st1{fill:#880606;}
</style>
<title>Tegnebræt 4</title>
<g id="Lag_4">
	<rect x="-3.5" y="-3.5" class="st0" width="1506.9" height="1506.9"/>
	<path class="st1" d="M628,1346.4c-1.5,4.9-4,12.8-7.4,23.6c-3.4,11.2-5.3,18.6-5.6,22.1l28.1-3.7L628,1346.4z"/>
	<path class="st1" d="M117.7,1383.3c20.6-1.8,30-12.9,28.2-33.3c-0.3-3.8-2.4-7.1-6.1-9.7c-3.3-2.3-7.3-3.3-11.3-3
		c-4.6,0.3-8.9,2.4-11.9,5.9c-3,3.6-4.6,8.1-4.4,12.8l0.5,27.7L117.7,1383.3z"/>
	<path class="st1" d="M-3.5-3.5v1506.9h930.8c-0.3-0.2-22.3-1.5-22.3-6c0-4.9,3.6-3.7,6.2-3.8c41-2,82-4.2,122.8-9.2
		c72.1-8.7,142.4-23.7,208.5-55.1c105.5-50.2,169.6-133.7,198.3-245.9c26.8-104.8,22.3-209.3-3.7-313.5c-1.1-4.3-2.2-8.6-3.4-13.7
		c-2.1,1.6-1.5,3.5-1.5,5c-2.3,56-9.7,111.2-26.7,164.9c-30.5,96.3-93.6,162.1-186.5,200.4c-66.4,27.4-135.4,43.1-207,48
		c-66.4,4.6-132.3,0.7-197.6-12.7c-2.5-0.5-6.3,0.8-6.6-3.8c-0.2-4,2.8-5.2,5.7-6.6c27.2-13.7,56.2-23.1,83.8-35.8
		c22.8-10.5,41.6-25.1,51.8-48.9c11.2-26,7.2-45.6-13.9-64.4c-27.5-24.3-60.5-35.7-96.5-37.6c-69.1-3.6-134,9-192.7,48.5
		c-44,29.5-91.1,53.5-142.1,69.1c-45.3,13.9-91.8,18.3-138.9,16.4c-78.1-3.1-155.6-13.2-233.4-20.8c-8.4-0.8-16.9-1.6-25.3-2.3
		c-1.8-0.2-3.7-0.2-5.5-0.5c-3.3-0.5-5.9-3-6.4-6.3c-0.8-4,3.6-3.1,5.6-3.8c41.2-14.1,80.2-32.4,118.2-53.6
		c67.9-37.9,115.2-93.4,145-164.8c67.2-161.1,67.5-322.8,3.7-484.8c-33.5-85.1-81.2-162.1-137-234.3C176.7,158.8,117.2,96,54.4,36.2
		C38.5,21,21.3,8.3,0.4,1.1v-3.2c2.6-2.4,5.4-1,8.2-0.5c112.8,19.3,223.2,48.9,333.5,79.2c78.8,21.7,157.7,43,236.4,64.9
		c6.9,1.9,7.1,0,7.1-5.8c-0.2-21.2-0.2-42.4,0.2-63.6c0.2-13,3.1-15.6,16-15.6h15.1c11.2,0,14.2,2.8,14.6,14.5
		c1,25.4,0.9,50.9-0.1,76.3c-0.3,6.8,1.7,9.4,8.3,11.2c105.6,28.8,211.8,55.6,315.6,90.7c35,11.9,70.4,22.8,104.3,37.9
		c5.3,2.4,10.4,5.2,15.6,7.8c2.3,1.2,4.8,1.9,3.6,5.8c-1.2,3.8-3.5,3.1-6.2,3c-20.5-0.9-40.4-5-60.4-9.3
		c-12.1-2.6-24.2-5.2-36.5-7.2c42.2,31.6,81,66.6,115.5,106.2c65,74.5,113.5,158,137.2,254.8c18.2,74.2,23,149.2,10.4,224.6
		c-10.5,62.6-38.7,118.2-74,170.5c-52,76.9-121,132.6-205.2,171.2c-58.3,26.7-61.8,29.1-128.5,42c20.3,2.8,38.9,3.7,57.5,4.2
		c116.2,3.4,226.5-19.3,330.6-72.1c83-42.1,131.1-109.6,149.7-199.5c12.9-62.2,16.7-125,9.7-188.1c-4.9-44.5-20.4-86.4-37.3-127.6
		c-20.5-49.9-43.2-98.9-60.3-150.2c-8.5-25.6-16.8-51.2-20.6-78.2c-6.3-43.7,7.2-78.2,45.6-101.8c13.9-8.5,29.4-11.8,45.1-14.1
		c27.1-4.1,53.9-2.5,80.1,5.8c10.5,3.3,20.1,8.1,28.1,15.7c8,7.6,14.6,17.1,11.2,28c-3.7,11.6-12.7,20.7-24.3,24.3
		c-11.2,3.7-22.4,2.2-33.7-0.3c-21.4-4.8-43-5.6-64.6-1.2c-8.8,1.8-16.2,6.3-23.3,11.4c-4.9,3.5-6.3,8.9-6.1,14.8
		c0.7,21.4,6.4,41.8,13.1,61.9c15.1,45.8,32.9,90.6,52.4,134.5c10.5,23.6,24.6,45.6,35.9,68.9c44.1,90.7,72.1,185.9,80.7,286.5
		c7.3,85.5-1.2,169.3-30.3,250.4c-43.8,121.9-128.9,201.3-251.4,241.6c-54.2,17.9-179.2,31.8-181.8,31.8h466.5V-3.5H-3.5z
		 M1044.1,1333.9c5.6-0.1,9.4-0.3,11.3-0.5l31.1-2.7c3.8-0.3,7.6-0.8,11.6-1.5c8-1.6,14.5-2.9,19.6-3.9
		c-8.4,5.9-14.7,10.2-18.8,12.9c-5.6,0.6-11.5,1.3-17.5,2.2c-1.9,22.1-1.8,44.3,0.1,66.4c0.3,3.4,1.3,9.9,3,19.6
		c-5.2-0.2-8.7-0.2-10.5,0c-3,0.4-6.1,0.9-9,1.7c1.5-24.6,1.6-44.2,0.3-58.8c-0.8-8.8-1.2-13.4-1.2-13.8c-0.5-4.6-1.5-9.1-3.1-13.4
		l-17.2,1.4c-12.4,2.6-18.7,3.8-18.8,3.8C1033.6,1341.2,1039.9,1336.7,1044.1,1333.9z M948.9,1335.1l24.9-2.2
		c4.5-0.4,9.1-1,13.5-1.8c4.3-0.7,10.6-2,18.8-3.8c-4.4,3-10.7,7.4-19,13.3c-3.3-0.1-6.5,0-9.8,0.3l-8.3,0.7c-3,0.3-5.9,0.6-8.8,0.8
		c-0.8,8.6-0.9,17.3-0.3,25.9c0,0.2,0.4,3.1,1.3,8.7l22-1.9c4.4-0.7,10.8-2,19.2-3.9c-4.2,2.8-10.4,7-18.4,12.7
		c-13.5,0.5-20.9,0.8-22.4,0.9c-0.4,1.1-0.6,4.4-0.6,9.9c0,4.3,0,7.6,0.2,9.9c0,0.3,0.6,4.8,1.8,13.5c1.7-0.1,4.3-0.3,7.8-0.4
		c3.3-0.1,5.7-0.2,7.3-0.4c3.3-0.2,6.5-0.7,9.7-1.4c4.5-0.8,10.9-2.2,19.4-4c-4.6,3.1-11.3,7.7-19.8,13.7c-7,0.2-11.7,0.4-14.3,0.6
		c-4.3,0.4-13.5,1.7-27.5,3.8c1.3-30.6,1.5-52.1,0.4-64.6l-1.3-15.4c-0.5-5.1-1.7-10.2-3.4-15.1
		C945.7,1335.1,948.2,1335.1,948.9,1335.1z M828.5,1350c8.6-9.2,20.5-14.4,35.8-15.8c-0.4,0,1.8-0.6,6.8-2c4.9-1.4,9.9-2.3,15-2.9
		c10.8-0.9,19.6,2.3,26.3,9.7l0.4,0.5c-3.6,2.8-8.8,6.5-15.4,11.1l-0.7-1.5c-1.9-4.9-6-8.7-11.1-10.4c-5.1-1.7-11.7-2.1-19.6-1.4
		c-4.4,0.4-9.3,2.6-14.9,6.6c-4.5,3.1-8.5,7.1-11.7,11.6c-6.5,9.4-9.2,20.4-8,33c0.9,10.7,4.9,19.5,12,26.6c7.5,7.6,16.3,11,26.6,10
		c2.7-0.2,6.3-1.5,10.8-3.7c4.5-2.2,7.7-4.3,9.5-6.2c4.8-4.9,7.1-13.1,6.8-24.5c-1.8,0.2-3.6,0.6-5.3,1.1c-3.6,1.1-7.3,1.8-11.1,2.1
		c-6.8,0.6-11.3-0.5-13.4-3.2l10.6-6.9c1.4,1.9,4.1,2.6,7.9,2.3c1.6-0.1,6.8-1.5,15.7-4.1c1.5-0.5,3-0.8,4.6-0.9
		c6.1-0.5,12.6,0.9,19.2,4.4l-10.6,7.5c-0.3-0.5-1.3-1-3-1.7c-0.1,5.2-0.2,11.8-0.3,20c0.1,0.5-2.5,2.8-7.5,6.8
		c-5.1,4-8.2,6.2-9.3,6.3c-1.7,0.3-6.6,1.3-14.6,3.1c-1.3,0.3-5.7,0.7-13.1,1.4c-1.7,0.2-4.3,0.5-7.8,1.1c-3.5,0.6-6.2,1-8,1.1
		c-6.3,0.7-12.7-0.9-18.1-4.4c-5.5-3.6-9.8-8.8-12.5-14.8c-2.8-6.1-4.2-11.5-4.4-16.1l-0.3-8.8
		C815.4,1371.7,819.6,1359.3,828.5,1350z M707.1,1336.1c3.7-0.4,7.4-1,11.1-2c-3.3,16.4-3.8,37.4-1.6,62.8c0.7,8,2.1,13.8,4.4,17.6
		c3.2,5.5,8.2,8,15.2,7.3c24.9-2.2,35.4-26,31.4-71.5c-0.5-5.9-1.4-12.9-2.6-21.1c2.7,0.6,5.4,0.8,8.2,0.7c3.6-0.3,7.2-1,10.7-2
		c-1.1,8.2-1.7,16.4-1.7,24.7c0,4.4,0.1,12.4,0.4,24c0.1,1.1,0.1,6.1,0.2,15.1c0.1,6.1,0.3,11.1,0.7,15.1c0-0.1,0.5,3.1,1.5,9.7
		c-3.9,2.8-9.6,6.9-17.1,12.2c0.1-3.5,0.3-8.4,0.5-14.8c-1.5,0.9-3.8,2.2-6.6,3.7c-2,1.1-4.1,2.1-6.3,2.9c-2.1,0.4-4.2,1-6.3,1.6
		c-12.6,5.1-22.2,7.9-28.8,8.5c-5.8,0.5-10.1-0.5-12.8-3c-2.8-2.5-4.4-6.7-4.9-12.5c-0.6-7.1-0.9-17.8-0.8-32.1
		c0.1-14.3-0.2-25-0.8-32.1c-0.5-6.2-2-11.1-4.3-14.8C700.1,1336.3,703.6,1336.4,707.1,1336.1L707.1,1336.1z M608.7,1382.5
		c7.7-25.8,11.5-40.1,11.2-42.8c-0.2-1.2-0.5-2.3-1.1-3.4c-0.9-1.8-1.5-2.9-1.6-3.2c7.7,0.5,15.5,0,23.1-1.6
		c1.7,9.2,6,23.4,12.6,42.8c1.3,3.7,4,10.7,8.2,20.9c4.7,11.6,7.6,18.1,8.7,19.4l7.1,8.7l-2,0.2c-1.8,0.1-3.7,0.2-5.5,0.1
		c-1.8-0.1-3.7,0-5.5,0.1c-1.5,0.2-3.1,0.4-4.6,0.8c-1.6,0.4-3.1,0.6-4.7,0.8c-1.3-5.3-2.7-10.5-4.1-15.7
		c-1.2-5.2-2.9-10.4-5.1-15.3l-31.6,2.7c-4.7,12.9-7,23.6-6.9,32.4c-2-0.1-4-0.1-6,0c-2.4,0.2-4.7,0.6-7,1.1
		C596.8,1421,601.8,1405,608.7,1382.5L608.7,1382.5z M513.6,1334.7c4.5-0.4,8.9-1.1,13.3-2.1c-1.9,5.7-2.9,11.6-3,17.6
		c0,0.7,0,6.6,0.1,17.7c0.2,15.1,0.5,24.9,0.9,29.2l1.1,12.9c0.5,5.7,4.5,8.3,12.1,7.6c5.8-0.5,17.5-2.5,35.2-5.9
		c-3.8,3.3-8.2,7.6-13.1,12.6c-18,1.1-35.1,3-51.4,5.5c0.4-5.3,0.7-13.2,1-23.7c-0.1-20-0.9-38.6-2.4-55.8
		c-0.7-5.4-1.9-10.6-3.7-15.7C506.9,1334.8,510.3,1334.9,513.6,1334.7z M392.3,1350c8.6-9.2,20.5-14.4,35.8-15.8
		c-0.4,0,1.8-0.6,6.8-2c4.9-1.4,9.9-2.3,15-2.9c10.9-0.9,19.6,2.3,26.3,9.7l0.4,0.5c-3.6,2.8-8.8,6.5-15.4,11.1l-0.6-1.5
		c-2-5-6-8.8-11.1-10.4c-5.1-1.7-11.7-2.1-19.6-1.4c-4.4,0.4-9.3,2.6-14.9,6.6c-4.5,3.2-8.5,7.1-11.6,11.6c-6.5,9.4-9.2,20.4-8.1,33
		c0.9,10.7,4.9,19.5,12,26.6c7.5,7.6,16.3,11,26.6,10c2.7-0.2,6.3-1.5,10.8-3.7c4.5-2.2,7.7-4.3,9.5-6.2c4.8-4.9,7.1-13.1,6.8-24.5
		c-1.8,0.2-3.6,0.6-5.3,1.1c-3.6,1.1-7.3,1.8-11.1,2.1c-6.8,0.6-11.3-0.5-13.5-3.2l10.6-6.8c1.5,1.9,4.1,2.6,7.9,2.3
		c1.6-0.1,6.8-1.5,15.7-4.1c1.5-0.5,3-0.8,4.6-0.9c6.1-0.5,12.6,0.9,19.2,4.4l-10.6,7.4c-0.3-0.5-1.3-1-3-1.7
		c-0.1,5.2-0.2,11.8-0.3,20c0,0.5-2.5,2.8-7.5,6.8c-5,4-8.2,6.2-9.3,6.3c-1.7,0.3-6.6,1.3-14.6,3.1c-1.3,0.3-5.7,0.7-13.1,1.4
		c-1.7,0.2-4.3,0.5-7.8,1.1c-3.5,0.6-6.2,1-8,1.1c-6.3,0.7-12.7-0.9-18.1-4.4c-5.5-3.6-9.8-8.8-12.5-14.8
		c-2.8-6.1-4.2-11.5-4.4-16.1l-0.3-8.8C379.2,1371.7,383.4,1359.3,392.3,1350z M262,1350c8.6-9.2,20.5-14.4,35.8-15.8
		c-0.4,0,1.8-0.6,6.8-2c4.9-1.4,9.9-2.3,15-2.9c10.9-0.9,19.6,2.3,26.3,9.7l0.4,0.5c-3.6,2.8-8.8,6.5-15.4,11.1l-0.6-1.5
		c-1.9-4.9-6-8.7-11.1-10.3c-5.1-1.7-11.7-2.1-19.6-1.4c-4.3,0.4-9.3,2.6-14.9,6.6c-4.5,3.1-8.5,7.1-11.6,11.6
		c-6.5,9.4-9.2,20.4-8.1,33c0.9,10.7,4.9,19.5,12,26.6c7.5,7.6,16.3,11,26.6,10c2.6-0.2,6.2-1.5,10.8-3.7c4.5-2.2,7.7-4.3,9.5-6.2
		c4.8-4.9,7.1-13.1,6.8-24.5c-1.8,0.2-3.6,0.6-5.3,1.1c-3.6,1.1-7.3,1.8-11.1,2.1c-6.8,0.6-11.3-0.5-13.5-3.2l10.6-6.9
		c1.5,1.9,4.1,2.6,7.9,2.3c1.6-0.1,6.8-1.5,15.7-4.1c1.5-0.5,3-0.8,4.6-0.9c6.1-0.5,12.6,0.9,19.2,4.4l-10.6,7.4
		c-0.3-0.5-1.3-1-3-1.7c-0.1,5.2-0.2,11.8-0.3,20c0,0.5-2.5,2.8-7.5,6.8c-5.1,4-8.2,6.2-9.3,6.3c-1.7,0.3-6.6,1.3-14.6,3.1
		c-1.3,0.3-5.7,0.7-13.1,1.4c-1.7,0.2-4.3,0.5-7.8,1.1c-3.5,0.6-6.2,1-8,1.1c-6.3,0.7-12.7-0.9-18.1-4.4c-5.5-3.6-9.8-8.8-12.5-14.8
		c-2.8-6.1-4.2-11.5-4.4-16.1l-0.3-8.8C249,1371.7,253.2,1359.3,262,1350z M217.1,1331.3c-1.4,6.2-2,12.6-1.8,18.9
		c0.4,25.6,1.2,44.6,2.3,56.9c0.8,8.6,1.8,15,3,19.4c-5.4-0.1-9.4-0.1-11.9,0.1c-3.3,0.3-6.6,0.9-9.8,1.8c0.6-5.4,1.2-13.4,1.9-24.1
		c0-2.5-0.2-12.2-0.5-29c-0.1-8.3-0.2-12.5-0.2-12.8c-0.8-10.1-2.2-20.1-4-30C203.1,1332.9,210.1,1332.5,217.1,1331.3L217.1,1331.3z
		 M103,1336.1l22.7-2c2.2-0.3,4.5-0.7,6.7-1.2c2.3-0.6,4.6-1,6.9-1.3c14.9-1.3,22.8,3.3,23.7,13.8c0.8,8.9-0.7,15.9-4.3,21.2
		c-2.8,3.8-8.5,8.4-17.1,13.8c1.7,1.5,3.5,2.9,5.4,4.2c1.8,1.1,3.3,2.4,4.6,4l10.1,15.1c5.1,7.7,8.5,12.1,10.2,13.1l8.7,5.3
		c-4.6,1-7.4,1.6-8.5,1.6l-8.3,0.7c-4.5,0.4-9.1-2.6-13.8-9c-3.1-5.2-6.3-10.3-9.4-15.6c-2.2-3.6-4.8-7-7.8-9.9
		c-2.6-2.3-5.8-3.6-9.2-3.8c-3.4-0.2-6.9-0.1-10.3,0.4c0.2,8.8,0.6,17.6,1.4,26.1c0.5,5.6,1.5,11.2,3.1,16.6
		c-4.9,0-8.5,0.1-10.8,0.3c-1,0.1-4,0.6-8.8,1.4c2.9-17.7,2.8-44.7-0.4-81.1c-0.5-4.8-2.1-9.5-4.8-13.5
		C98.6,1336.2,102,1336.2,103,1336.1L103,1336.1z M15,1335.3c1.8,0.1,3.6,0.1,5.4,0l20.1-1.8c2.9-0.3,6-0.7,9.2-1.2
		c7.9-1.7,14.4-3.1,19.3-4c-9.1,6.3-16,11-20.7,14.2l-17.1,1.5l-2.9,0.3c0.4,16.1,0.5,28.3,0.5,36.4l3.3-0.3
		c5.8-0.5,11.5-1.1,17-1.9l18.8-3.8c-8.4,5.8-14.5,10.1-18.5,12.7c-8.9,0.6-15.6,1.1-20,1.6c0.3,13.7,0.7,22.8,1.1,27.1
		c0.3,4.1,0.9,8.2,1.7,12.2c-3.1-0.1-6.2-0.1-9.3,0.2c-1.1,0.1-2.6,0.3-4.6,0.7c-1.6,0.3-3.1,0.6-4.7,0.8
		c1.8-34.2,1.9-61.1,0.2-80.7c-0.6-5-2.1-9.9-4.2-14.5C10.3,1334.9,12.1,1335.1,15,1335.3z"/>
	<path class="st1" d="M235.2,1118.2c-32.1,17.3-65.7,31.8-100.2,43.6c-4.3,1.4-8.6,3-12.9,4.4c5.6,1.7,11.1,2,16.4,2.5
		c68.4,5.4,136.6,12,205.3,14.4c62.6,2.2,123.7-4.7,181.8-29.6c41.3-17.7,79.5-40.8,116.6-65.7c70-47,147.4-58.8,229.3-46.7
		c30.9,4.6,60.3,14.2,85.1,34.4c32.6,26.5,41.5,63.3,24.3,103.7c22.4-13.9,42.9-27.4,61.6-43.4c45.6-39.1,81-86.4,110.1-138.6
		c25.7-46.2,44.8-95,49.4-148c7.7-88.6-4.2-174.9-35.5-258.3c-32.1-85.8-82.8-160-145.1-226.5c-29-30.9-57.7-62.2-93.5-85.7
		c-4.6-3.1-9.6-5.4-15-6.8c-31.1-7.7-62.3-15-93.1-23.6c-147.9-41.6-295.8-83.4-443.5-125.4c-103.1-29.2-206.4-57.4-307-94.3
		c-1.5-0.6-3-1-4.6-0.1c0.1,0.3,0,0.6,0.2,0.7c46.1,28.8,86,65.1,123.8,103.8c89.8,92.1,163,195.4,211.6,315.1
		c30.2,74.4,49.1,151.5,51.5,232.1c2.9,98.7-21.2,191.4-64.8,279.4C352.9,1028.3,303.4,1082,235.2,1118.2z"/>
</g>
</svg>
